<svg width="17" height="10" viewBox="0 0 17 10" fill="none" xmlns="http://www.w3.org/2000/svg">
<path d="M0.785825 0.576872C0.920741 0.441679 1.081 0.334422 1.25741 0.261241C1.43383 0.18806 1.62295 0.150391 1.81395 0.150391C2.00495 0.150391 2.19407 0.18806 2.37049 0.261241C2.54691 0.334422 2.70716 0.441679 2.84208 0.576872L8.50041 6.2352L14.1587 0.576872C14.4314 0.304197 14.8012 0.151009 15.1869 0.151009C15.5725 0.151009 15.9423 0.304197 16.215 0.576872C16.4877 0.849548 16.6409 1.21938 16.6409 1.605C16.6409 1.99062 16.4877 2.36045 16.215 2.63312L9.52124 9.32687C9.38633 9.46206 9.22607 9.56932 9.04965 9.6425C8.87323 9.71568 8.68411 9.75335 8.49312 9.75335C8.30212 9.75335 8.113 9.71568 7.93658 9.6425C7.76016 9.56932 7.59991 9.46206 7.46499 9.32687L0.771241 2.63312C0.217075 2.07895 0.217075 1.14562 0.785825 0.576872Z" fill="#FAFAFA"/>
</svg>
